<svg width="16" height="14" viewBox="0 0 16 14" fill="none" xmlns="http://www.w3.org/2000/svg">
<path d="M13.5234 1.8158C15.5742 3.53845 15.2734 6.35486 13.8242 7.85876L9.01172 12.7533C8.73828 13.0267 8.38281 13.1908 8 13.1908C7.58984 13.1908 7.23438 13.0267 6.96094 12.7533L2.17578 7.85876C0.699219 6.35486 0.398438 3.53845 2.44922 1.8158C4.03516 0.475952 6.46875 0.667358 8 2.22595C9.50391 0.667358 11.9375 0.475952 13.5234 1.8158ZM12.8672 6.92908C13.8789 5.91736 14.0703 4.0033 12.6758 2.80017C11.6094 1.92517 9.96875 2.06189 8.95703 3.10095L8 4.08533L7.04297 3.10095C6.00391 2.06189 4.36328 1.92517 3.29688 2.82751C1.90234 4.0033 2.09375 5.91736 3.10547 6.92908L7.89062 11.8236C7.97266 11.8783 8.02734 11.8783 8.08203 11.8236L12.8672 6.92908Z" fill="white"/>
</svg>
