<svg width="292" height="79" viewBox="0 0 292 79" fill="none" xmlns="http://www.w3.org/2000/svg">
<g clip-path="url(#clip0_1_186)">
<path d="M46.5405 21.2669C46.5405 24.3303 45.7727 27.1581 44.2962 29.6912C42.7606 32.2244 40.7525 34.2274 38.2128 35.7591C35.6732 37.2908 32.8382 37.2908 29.767 37.2908H15.5923V47.8948H3.60278V4.53613L29.8851 4.65396C33.0154 4.65396 35.7913 5.47871 38.3309 6.95149C40.8115 8.42428 42.8196 10.4273 44.2962 12.9604C45.7727 15.4936 46.5405 18.2625 46.5405 21.3258V21.2669ZM15.5332 26.3333H29.4717C30.8892 26.3333 32.0704 25.862 33.0745 24.8605C34.0785 23.859 34.551 22.6808 34.551 21.2669C34.551 19.8531 34.0785 17.9679 33.0745 16.9664C32.0704 15.9649 30.8892 15.4936 29.4717 15.4936H15.5332V26.3922V26.3333Z" fill="#022454"/>
<path d="M73.3544 37.2908H61.483V47.8948H49.5526V4.53613L75.835 4.65396C78.9652 4.65396 81.7411 5.47871 84.2808 6.95149C86.7614 8.42428 88.7694 10.4273 90.246 12.9604C91.7225 15.4936 92.4903 18.2625 92.4903 21.3258C92.4903 24.3892 91.7816 27.0402 90.3641 29.5145C88.9466 31.9888 87.0567 33.9918 84.6351 35.5235L93.7306 48.0126H80.5599L73.3544 37.4086V37.2908ZM61.7783 15.4347V25.5675H75.7168C77.1343 25.5675 78.3156 25.0962 79.3196 24.0947C80.3236 23.0932 80.7961 21.915 80.7961 20.5011C80.7961 19.0872 80.3236 17.909 79.3196 16.9075C78.3156 15.906 77.1343 15.4347 75.7168 15.4347H61.7783Z" fill="#022454"/>
<path d="M237.723 15.4348H211.499C210.909 15.4348 210.377 15.6704 209.964 16.0828C209.55 16.4952 209.314 17.5556 209.314 18.2036C209.314 18.7927 209.55 19.7942 209.964 20.2066C210.377 20.619 210.909 20.8546 211.499 20.8546H223.961C226.501 20.8546 228.804 21.5026 230.871 22.7398C232.939 23.9769 234.592 25.6264 235.833 27.6883C237.073 29.7502 237.663 32.0478 237.663 34.5809C237.663 38.2334 236.305 41.4736 233.647 44.2424C230.812 46.9523 227.564 48.2484 223.902 48.2484H197.324V37.3498H223.666C224.197 37.3498 224.729 37.173 225.142 36.7018C225.91 35.877 225.733 34.6988 225.733 34.6988C225.733 34.3453 225.615 33.226 225.32 32.9314C225.024 32.6369 224.67 32.5191 224.316 32.5191H211.499C207.719 32.5191 204.412 31.1641 201.459 28.3953C198.742 25.6264 197.384 22.2685 197.324 18.3804C197.384 14.5511 198.801 11.2521 201.459 8.48326C204.235 5.83225 207.601 4.47729 211.499 4.47729L237.663 4.83076V15.4348H237.723Z" fill="#022454"/>
<path d="M276.112 7.42286C279.833 9.36693 282.786 12.0179 284.972 15.3759C287.157 18.6749 288.279 22.3863 288.279 26.3923C288.279 30.3983 287.157 34.1097 284.972 37.4087C282.786 40.7077 279.833 43.3587 276.112 45.3617C272.392 47.3058 268.316 48.3073 263.769 48.3073C259.221 48.3073 255.146 47.3058 251.425 45.3617C247.704 43.4176 244.751 40.7666 242.566 37.4087C240.38 34.1097 239.258 30.3983 239.258 26.3923C239.258 22.3863 240.38 18.6749 242.566 15.3759C244.751 12.0768 247.704 9.42584 251.425 7.42286C255.146 5.47879 259.221 4.47729 263.769 4.47729C268.316 4.47729 272.392 5.47879 276.112 7.42286ZM263.769 15.4348C260.52 15.4348 257.685 16.4952 255.382 18.616C253.078 20.7368 251.956 23.3289 251.956 26.3334C251.956 29.3378 253.078 31.9299 255.382 34.0508C257.685 36.1716 260.461 37.232 263.769 37.232C267.076 37.232 269.852 36.1716 272.155 34.0508C274.459 31.9299 275.581 29.3378 275.581 26.3334C275.581 23.3289 274.459 20.7368 272.155 18.616C269.852 16.4952 267.076 15.4348 263.769 15.4348Z" fill="#022454"/>
<path d="M210.672 68.9262C210.495 69.8687 210.2 70.6935 209.786 71.4004C209.373 72.1074 208.9 72.6965 208.251 73.1678C207.601 73.6391 206.833 73.9925 205.947 74.2282C205.061 74.4638 203.939 74.5816 202.758 74.5816C201.872 74.5816 201.104 74.5227 200.396 74.346C199.687 74.2282 199.096 74.0514 198.624 73.8158C198.447 73.7569 198.328 73.6391 198.269 73.5212C198.21 73.4034 198.151 73.2856 198.151 73.1089C198.151 73.0499 198.151 72.9321 198.151 72.8143C198.151 72.6965 198.151 72.5197 198.21 72.343C198.21 72.1663 198.269 71.9895 198.328 71.8128C198.328 71.6361 198.447 71.4593 198.506 71.2826C198.565 71.1059 198.683 70.9881 198.742 70.9291C198.86 70.8113 198.919 70.8113 199.096 70.8113C199.273 70.8113 199.392 70.8113 199.569 70.9291C199.746 70.9881 199.982 71.1059 200.277 71.2237C200.573 71.3415 200.927 71.4004 201.4 71.5183C201.872 71.5772 202.404 71.6361 203.053 71.6361C203.585 71.6361 204.057 71.6361 204.471 71.5183C204.884 71.4004 205.239 71.2826 205.534 71.1059C205.829 70.9291 206.065 70.6935 206.302 70.3989C206.538 70.1044 206.656 69.7509 206.715 69.3385C206.833 68.6905 207.01 68.1014 207.129 67.6301C207.247 67.1588 207.365 66.8054 207.483 66.5108C207.306 66.8643 207.01 67.1588 206.656 67.5123C206.302 67.8658 205.888 68.1603 205.475 68.396C205.002 68.6905 204.53 68.8672 204.057 69.044C203.526 69.2207 203.053 69.2796 202.522 69.2796C201.754 69.2796 201.045 69.1618 200.514 68.8672C199.982 68.5727 199.51 68.2192 199.214 67.7479C198.86 67.2766 198.624 66.7464 198.506 66.0984C198.328 65.4504 198.269 64.7435 198.269 64.0365C198.269 63.3885 198.328 62.6227 198.447 61.8568C198.565 61.091 198.742 60.3251 199.037 59.5593C199.332 58.7934 199.628 58.0865 200.041 57.3795C200.455 56.6726 200.927 56.0835 201.518 55.4944C202.108 54.9642 202.699 54.5518 203.467 54.1983C204.235 53.8449 205.002 53.7271 205.947 53.7271C206.833 53.7271 207.542 53.9038 208.251 54.2573C208.959 54.6107 209.491 55.1409 209.964 55.7889L210.2 54.5518C210.2 54.5518 210.377 54.1983 210.672 54.0805C210.968 53.9627 211.44 53.9627 212.031 53.9627C212.326 53.9627 212.621 53.9627 212.798 53.9627C212.976 53.9627 213.153 54.0216 213.271 54.0805C213.389 54.0805 213.448 54.1983 213.507 54.2573C213.507 54.3162 213.507 54.434 213.507 54.5518L210.613 68.9262H210.672ZM208.9 58.6756C208.546 58.0865 208.133 57.6741 207.719 57.3795C207.306 57.085 206.774 56.9672 206.184 56.9672C205.77 56.9672 205.357 57.085 205.002 57.2617C204.648 57.4974 204.353 57.733 204.057 58.0865C203.762 58.44 203.526 58.8523 203.29 59.2647C203.053 59.736 202.876 60.2073 202.758 60.6786C202.64 61.1499 202.522 61.6801 202.463 62.1514C202.404 62.6227 202.345 63.0939 202.345 63.5652C202.345 63.9187 202.345 64.2133 202.463 64.5078C202.581 64.8024 202.64 65.038 202.758 65.2147C202.876 65.3915 203.053 65.5682 203.231 65.686C203.408 65.8039 203.703 65.8628 203.939 65.8628C204.412 65.8628 204.884 65.7449 205.357 65.4504C205.829 65.1558 206.302 64.8024 206.715 64.3311C207.129 63.8598 207.483 63.3296 207.778 62.6816C208.074 62.0335 208.31 61.3855 208.487 60.6786L208.9 58.6167V58.6756Z" fill="#E16120"/>
<path d="M229.395 54.3752C229.395 54.3752 229.395 54.552 229.395 54.7876C229.395 54.9644 229.395 55.2 229.277 55.4356C229.277 55.6713 229.159 55.9658 229.1 56.2015C229.04 56.4371 228.981 56.7317 228.863 56.9084C228.804 57.1441 228.686 57.3208 228.627 57.4386C228.509 57.5565 228.45 57.6743 228.332 57.6743C228.214 57.6743 228.155 57.6743 228.036 57.6743C227.918 57.6743 227.859 57.6154 227.741 57.5565C227.623 57.4975 227.505 57.4975 227.387 57.4386C227.269 57.3797 227.091 57.4386 226.914 57.4386C226.56 57.4386 226.206 57.5565 225.792 57.851C225.379 58.1456 225.024 58.499 224.67 58.9114C224.316 59.3238 223.961 59.854 223.725 60.4431C223.43 61.0322 223.252 61.6213 223.134 62.2694L221.894 68.455C221.894 68.455 221.835 68.6318 221.776 68.7496C221.717 68.8674 221.599 68.8674 221.422 68.9263C221.244 68.9852 221.067 69.0442 220.772 69.0442C220.477 69.0442 220.181 69.0442 219.827 69.0442C219.473 69.0442 219.118 69.0442 218.882 69.0442C218.646 69.0442 218.468 68.9852 218.291 68.9263C218.173 68.9263 218.055 68.8085 217.996 68.7496C217.996 68.6907 217.996 68.5729 217.996 68.455L220.772 54.6698C220.772 54.6698 220.831 54.4931 220.89 54.3752C220.949 54.3163 221.067 54.2574 221.185 54.1985C221.303 54.1985 221.481 54.1396 221.717 54.0807C221.953 54.0807 222.189 54.0807 222.544 54.0807C222.898 54.0807 223.134 54.0807 223.312 54.0807C223.489 54.0807 223.666 54.1396 223.784 54.1985C223.902 54.2574 223.961 54.3163 224.02 54.3752C224.02 54.4342 224.02 54.552 224.02 54.6698L223.607 56.8495C223.843 56.3782 224.138 56.0248 224.493 55.6124C224.847 55.2 225.142 54.9054 225.556 54.6698C225.91 54.3752 226.324 54.1985 226.678 54.0218C227.091 53.845 227.446 53.7861 227.859 53.7861C228.036 53.7861 228.155 53.7861 228.332 53.7861C228.509 53.7861 228.627 53.7861 228.804 53.845C228.922 53.845 229.04 53.904 229.159 53.9629C229.277 54.0218 229.336 54.0807 229.395 54.0807C229.454 54.1396 229.513 54.2574 229.513 54.3752H229.395Z" fill="#E16120"/>
<path d="M247.527 59.2059C247.527 59.9717 247.468 60.7376 247.29 61.5034C247.172 62.2693 246.936 63.0351 246.641 63.801C246.345 64.5668 245.932 65.2737 245.46 65.9218C244.987 66.5698 244.455 67.1589 243.747 67.6302C243.097 68.1015 242.329 68.5139 241.502 68.8084C240.676 69.103 239.671 69.2208 238.608 69.2208C237.545 69.2208 236.659 69.103 235.892 68.8673C235.124 68.6317 234.474 68.2782 234.002 67.8069C233.47 67.3356 233.116 66.7465 232.879 66.0985C232.643 65.3916 232.525 64.6257 232.525 63.742C232.525 62.9762 232.584 62.2103 232.761 61.4445C232.879 60.6787 233.116 59.9128 233.411 59.147C233.706 58.3811 234.12 57.6742 234.592 57.0262C235.065 56.3781 235.596 55.789 236.305 55.2588C236.955 54.7875 237.722 54.3752 238.549 54.0806C239.376 53.786 240.38 53.6682 241.443 53.6682C242.506 53.6682 243.392 53.786 244.16 54.0217C244.928 54.2573 245.578 54.6108 246.05 55.0821C246.582 55.5534 246.936 56.1425 247.172 56.7905C247.409 57.4974 247.527 58.2633 247.527 59.147V59.2059ZM243.51 59.4415C243.51 59.0291 243.51 58.6168 243.392 58.2633C243.333 57.9098 243.156 57.6742 242.979 57.4385C242.802 57.2029 242.506 57.0262 242.211 56.9083C241.916 56.7905 241.502 56.7316 241.03 56.7316C240.498 56.7316 240.026 56.8494 239.612 57.0262C239.199 57.2029 238.845 57.4974 238.49 57.8509C238.136 58.2044 237.9 58.5579 237.663 59.0291C237.427 59.5004 237.25 59.9717 237.073 60.443C236.896 60.9143 236.777 61.4445 236.718 61.9747C236.659 62.5049 236.6 62.9762 236.6 63.4475C236.6 63.8599 236.6 64.2722 236.718 64.6257C236.777 64.9792 236.955 65.2737 237.132 65.5094C237.309 65.745 237.604 65.9218 237.9 66.0396C238.195 66.1574 238.608 66.2163 239.081 66.2163C239.612 66.2163 240.085 66.0985 240.498 65.9218C240.912 65.745 241.266 65.4505 241.62 65.097C241.975 64.7435 242.211 64.3312 242.447 63.9188C242.684 63.5064 242.861 62.9762 243.038 62.5049C243.215 62.0336 243.333 61.5034 243.392 60.9732C243.451 60.443 243.51 59.9717 243.51 59.5004V59.4415Z" fill="#E16120"/>
<path d="M264.95 68.3961C264.95 68.3961 264.891 68.5729 264.832 68.6907C264.773 68.7496 264.654 68.8085 264.536 68.8674C264.418 68.8674 264.241 68.9264 264.005 68.9853C263.769 69.0442 263.532 68.9853 263.178 68.9853C262.824 68.9853 262.587 68.9853 262.41 68.9853C262.233 68.9853 262.056 68.9263 261.938 68.8674C261.82 68.8085 261.76 68.7496 261.701 68.6907C261.701 68.6318 261.701 68.514 261.701 68.3961L262.115 66.1575C261.879 66.511 261.642 66.8645 261.288 67.2179C260.934 67.5714 260.52 67.9249 260.048 68.2194C259.575 68.514 259.044 68.7496 258.512 68.9264C257.981 69.1031 257.39 69.2209 256.799 69.2209C256.091 69.2209 255.441 69.1031 254.968 68.9264C254.496 68.7496 254.082 68.4551 253.787 68.1016C253.492 67.7481 253.256 67.3358 253.137 66.8645C253.019 66.3932 252.901 65.863 252.901 65.2739C252.901 64.9204 252.901 64.5669 252.96 64.2134C253.019 63.86 253.078 63.4476 253.137 63.0941L254.85 54.552C254.85 54.552 254.909 54.3753 254.968 54.2574C255.027 54.1985 255.146 54.1396 255.323 54.0807C255.5 54.0807 255.677 54.0218 255.972 53.9629C256.209 53.9629 256.563 53.9629 256.917 53.9629C257.272 53.9629 257.626 53.9629 257.862 53.9629C258.099 53.9629 258.276 54.0218 258.453 54.0807C258.63 54.1396 258.689 54.1985 258.748 54.2574C258.807 54.3164 258.807 54.4342 258.748 54.552L257.095 62.8585C257.095 62.8585 256.976 63.3298 256.976 63.5654C256.976 63.8011 256.976 64.0367 256.976 64.2724C256.976 64.508 256.976 64.7437 257.036 64.9204C257.036 65.0971 257.154 65.2739 257.272 65.4506C257.39 65.5684 257.508 65.6862 257.685 65.8041C257.862 65.863 258.04 65.9219 258.276 65.9219C258.689 65.9219 259.162 65.8041 259.575 65.5095C260.048 65.2149 260.461 64.8615 260.875 64.3902C261.288 63.9189 261.642 63.3298 261.997 62.6818C262.351 62.0337 262.587 61.3268 262.705 60.561L263.887 54.6109C263.887 54.6109 263.887 54.4342 264.005 54.3164C264.123 54.1985 264.182 54.1985 264.359 54.1396C264.536 54.1396 264.714 54.0807 265.009 54.0218C265.245 54.0218 265.599 54.0218 265.954 54.0218C266.308 54.0218 266.663 54.0218 266.899 54.0218C267.135 54.0218 267.312 54.0807 267.489 54.1396C267.608 54.1396 267.726 54.2574 267.785 54.3164C267.844 54.3753 267.785 54.4931 267.785 54.6109L265.009 68.3961H264.95Z" fill="#E16120"/>
<path d="M287.275 58.9702C287.275 59.6182 287.216 60.384 287.098 61.1499C286.98 61.9157 286.803 62.6816 286.507 63.4474C286.212 64.2133 285.917 64.9202 285.503 65.6271C285.09 66.3341 284.617 66.9821 284.027 67.5123C283.436 68.0425 282.845 68.4549 282.078 68.8083C281.369 69.1029 280.542 69.2796 279.597 69.2796C279.184 69.2796 278.77 69.2796 278.416 69.1618C278.061 69.1029 277.707 68.9851 277.412 68.8083C277.116 68.6316 276.821 68.4549 276.585 68.2781C276.349 68.1014 276.112 67.8658 275.935 67.6301L274.695 73.8747C274.695 73.8747 274.636 74.0514 274.577 74.1693C274.518 74.2282 274.4 74.346 274.222 74.4049C274.045 74.4638 273.868 74.5227 273.573 74.5227C273.277 74.5227 272.982 74.5227 272.628 74.5227C272.273 74.5227 271.919 74.5227 271.683 74.5227C271.447 74.5227 271.269 74.4638 271.092 74.4049C270.974 74.4049 270.856 74.2871 270.797 74.1693C270.797 74.1103 270.797 73.9925 270.797 73.8747L274.695 54.6107C274.695 54.6107 274.872 54.2573 275.167 54.1394C275.463 54.0216 275.876 54.0216 276.526 54.0216C276.821 54.0216 277.116 54.0216 277.294 54.0216C277.471 54.0216 277.648 54.0805 277.766 54.1394C277.884 54.1983 277.943 54.2573 278.002 54.3162C278.002 54.3751 278.002 54.4929 278.002 54.6107L277.589 56.8493C277.766 56.4959 278.002 56.1424 278.298 55.7889C278.652 55.4355 279.006 55.082 279.479 54.7875C279.951 54.4929 280.483 54.2573 281.015 54.0216C281.605 53.8449 282.137 53.7271 282.786 53.7271C283.554 53.7271 284.263 53.8449 284.794 54.1394C285.326 54.434 285.798 54.7875 286.094 55.2587C286.448 55.73 286.684 56.2602 286.803 56.9083C286.98 57.5563 287.039 58.2043 287.039 58.9702H287.275ZM283.259 59.3236C283.259 58.9702 283.259 58.6756 283.2 58.381C283.2 58.0865 283.023 57.8508 282.904 57.6741C282.786 57.4974 282.609 57.3206 282.432 57.2028C282.255 57.085 281.96 57.0261 281.723 57.0261C281.251 57.0261 280.778 57.1439 280.306 57.4385C279.833 57.733 279.42 58.0865 279.006 58.5578C278.593 59.0291 278.239 59.5593 277.884 60.2073C277.589 60.8553 277.353 61.5033 277.176 62.2103L276.762 64.3311C277.116 64.9202 277.53 65.3326 277.943 65.6271C278.357 65.9217 278.888 66.0395 279.479 66.0395C279.892 66.0395 280.306 65.9217 280.66 65.7449C281.015 65.5682 281.31 65.2737 281.605 64.9202C281.9 64.5667 282.137 64.1543 282.373 63.742C282.609 63.2707 282.786 62.7994 282.904 62.3281C283.023 61.8568 283.141 61.3266 283.2 60.8553C283.259 60.384 283.318 59.9127 283.318 59.4414L283.259 59.3236Z" fill="#E16120"/>
<path d="M135.133 15.4348V4.83081H96.093V15.4348H108.023H135.133Z" fill="#022454"/>
<path d="M183.268 48.2483H193.899V4.94849H183.268V18.2035V48.2483Z" fill="#022454"/>
<path d="M135.133 47.9537V37.2908H96.093V47.9537H108.023H135.133Z" fill="#022454"/>
<path d="M135.133 31.6944V21.0903H96.093V31.6944H108.023H135.133Z" fill="#E16120"/>
<path d="M154.564 18.9105C156.336 16.7307 158.994 15.4347 161.828 15.4347H179.783V4.94849H157.163C154.032 4.94849 151.256 5.89107 148.717 7.83514C146.177 9.77921 144.169 12.3713 142.633 15.6703C141.984 17.0253 141.511 18.4981 141.157 19.9709C140.625 22.0328 140.389 24.2125 140.389 26.5689C140.389 29.2199 140.744 31.7531 141.393 34.0506C141.748 35.17 142.102 36.2893 142.633 37.3497C144.11 40.5898 146.118 43.1819 148.599 45.126C151.079 47.0111 153.914 48.0126 157.044 48.0715L179.842 48.1894V37.2908H161.651C158.934 37.2908 156.395 36.1125 154.623 34.1096C150.902 29.8679 150.784 23.6234 154.328 19.2639L154.623 18.9105H154.564Z" fill="#022454"/>
</g>
<defs>
<clipPath id="clip0_1_186">
<rect width="292" height="79" fill="white"/>
</clipPath>
</defs>
</svg>
