<svg width="14" height="14" viewBox="0 0 14 14" fill="none" xmlns="http://www.w3.org/2000/svg">
<path d="M7 0.158569C3.25391 0.158569 0.21875 3.19373 0.21875 6.93982C0.21875 10.6859 3.25391 13.7211 7 13.7211C10.7461 13.7211 13.7812 10.6859 13.7812 6.93982C13.7812 3.19373 10.7461 0.158569 7 0.158569ZM9.51562 8.71716L8.96875 9.40076C8.88672 9.51013 8.77734 9.59216 8.61328 9.59216C8.53125 9.59216 8.42188 9.53748 8.36719 9.48279L6.53516 8.1156C6.26172 7.92419 6.125 7.62341 6.125 7.26794V3.00232C6.125 2.78357 6.31641 2.56482 6.5625 2.56482H7.4375C7.65625 2.56482 7.875 2.78357 7.875 3.00232V6.93982L9.46094 8.1156C9.54297 8.19763 9.625 8.30701 9.625 8.44373C9.625 8.5531 9.57031 8.66248 9.51562 8.71716Z" fill="white"/>
</svg>
